<?xml version="1.0" encoding="UTF-8"?>
<svg width="67px" height="48px" viewBox="0 0 67 48" version="1.1" xmlns="http://www.w3.org/2000/svg" xmlns:xlink="http://www.w3.org/1999/xlink">
    <title>29C02E4B-FBAA-47F4-B6F4-9C03EA5E7B2F@1x</title>
    <g id="Rivo-Admin" stroke="none" stroke-width="1" fill="none" fill-rule="evenodd">
        <g id="AC-Admin-Portal---Create-a-case-(Salesview)-02---a" transform="translate(-981.000000, -886.000000)" fill="#7D32AD" fill-rule="nonzero">
            <g id="Shape" transform="translate(981.000000, 886.000000)">
                <path d="M33.2903064,0 C28.336941,0 23.376066,1.88207135 19.5967646,5.66128758 C16.3892823,8.8687699 14.5418251,12.9237228 14.056406,17.1048304 C6.16946791,17.8208817 0,24.4426953 0,32.5161365 C0,41.0675646 6.93243528,48 15.4838634,48 L53.4193289,48 C60.7106802,48 66.5806129,42.1300674 66.5806129,34.838716 C66.5806129,27.5473647 60.7106802,21.6774089 53.4193289,21.6774089 L52.4999745,21.6774089 C53.1821935,15.9836826 51.3290848,10.0306868 46.9596159,5.66128758 C43.1805468,1.88207135 38.2436717,0 33.2903064,0 Z M33.2903064,16.258034 C33.7012481,16.2565083 33.9897899,16.3336953 34.3306672,16.6451532 L42.8467921,24.3871082 C43.4525983,24.9307466 43.5639272,25.9915461 42.9677211,26.5886813 C42.3926504,27.1647585 41.3671541,27.2342036 40.7660705,26.6854555 L34.8386927,21.2903123 L34.8386927,37.9354887 C34.8386927,38.7906625 34.145635,39.4838751 33.2903064,39.4838751 C32.4349778,39.4838751 31.74192,38.7906625 31.74192,37.9354887 L31.74192,21.2903123 L25.8145423,26.6854555 C25.2134587,27.2342036 24.1592398,27.1920101 23.6128917,26.5886813 C23.066621,25.9852752 23.0975113,24.940966 23.7338207,24.3871082 L32.2499456,16.6451532 C32.47121,16.4424695 32.8761905,16.2657986 33.2903064,16.258034 Z"></path>
            </g>
        </g>
    </g>
</svg>