<?xml version="1.0" encoding="UTF-8"?>
<svg width="250px" height="159px" viewBox="0 0 250 159" version="1.1" xmlns="http://www.w3.org/2000/svg" xmlns:xlink="http://www.w3.org/1999/xlink">
    <title>Group 3</title>
    <g id="✅-Dashboard" stroke="none" stroke-width="1" fill="none" fill-rule="evenodd">
        <g id="Dashboard-Empty-State-@-1200px" transform="translate(-595.000000, -789.000000)">
            <g id="Group-6" transform="translate(120.000000, 672.000000)">
                <g id="Group-4" transform="translate(383.000000, 117.200000)">
                    <g id="Group-3" transform="translate(92.000000, 0.000000)">
                        <path d="M244.760537,106.6721 C247.654213,106.6721 250,109.017888 250,111.911563 C250,114.805238 247.654213,117.151026 244.760537,117.151026 L244.760537,117.151026 L200.462819,117.151026 C197.561709,117.151026 195.210743,119.562149 195.210743,122.463259 C195.210743,125.364369 197.561709,127.775492 200.462819,127.775492 L200.462819,127.775492 L229.702903,127.775492 C232.604013,127.775492 234.954979,130.041075 234.954979,132.942185 C234.954979,135.843295 232.604013,138.108877 229.702903,138.108877 L229.702903,138.108877 L163.344136,138.108877 C160.45046,138.108877 158.104673,140.454665 158.104673,143.34834 C158.104673,146.242016 160.45046,148.587803 163.344136,148.587803 L163.344136,148.587803 L194.334588,148.587803 C197.486028,148.587803 199.587635,151.19007 199.587635,153.274211 C199.58586,154.66295 199.030475,155.993671 198.04449,156.971644 C197.058504,157.949616 195.723295,158.494123 194.334588,158.48469 L194.334588,158.48469 L29.7523869,158.48469 C26.8512769,158.48469 24.1490724,156.174351 24.1490724,153.274211 C24.1490724,151.19007 26.2506792,148.587803 29.7523869,148.587803 L29.7523869,148.587803 L40.4321587,148.587803 C43.3332686,148.587803 45.7453621,146.219372 45.7453621,143.318262 C45.7453621,141.098282 44.079407,139.187818 42.47846,138.418394 L42.47846,138.418394 L42.47846,138.108877 L38.3315222,138.108877 C35.4304122,138.108877 33.0784755,135.842324 33.0784755,132.942185 C33.0784755,130.042045 35.4304122,127.775492 38.3315222,127.775492 L38.3315222,127.775492 L54.0896918,127.775492 C56.9908018,127.775492 59.3417682,125.363399 59.3417682,122.463259 C59.3417682,119.563119 56.9908018,117.151026 54.0896918,117.151026 L54.0896918,117.151026 L5.23946286,117.151026 C2.34578742,117.151026 0,114.805238 0,111.911563 C0,109.017888 2.34578742,106.6721 5.23946286,106.6721 L5.23946286,106.6721 Z M240.029496,148.00564 C242.923172,148.00564 245.268959,150.351428 245.268959,153.245103 C245.268959,156.138779 242.923172,158.484566 240.029496,158.484566 L240.029496,158.484566 L210.088877,158.484566 C207.195201,158.484566 204.849414,156.138779 204.849414,153.245103 C204.849414,150.351428 207.195201,148.00564 210.088877,148.00564 L210.088877,148.00564 Z M79.8290383,138.108864 L56.7171854,138.108864 C53.82351,138.108864 51.4777226,140.454665 51.4777226,143.34834 C51.4777226,146.242016 53.82351,148.587821 56.7171854,148.587821 L56.7171854,148.587821 L79.8290383,148.587821 C81.2209823,148.591412 82.5571525,148.040992 83.5426823,147.058011 C84.5282121,146.075029 85.0820849,144.740289 85.0820849,143.34834 L85.0820849,143.34834 C85.0801478,141.956728 84.5265366,140.622283 83.541427,139.639358 C82.5563175,138.656433 81.2206465,138.105785 79.8290383,138.108864 L79.8290383,138.108864 Z M24.1490724,127.775492 C27.0501824,127.775492 29.4021191,130.042045 29.4021191,132.942185 C29.4021191,135.843295 27.0501824,138.108877 24.1490724,138.108877 L24.1490724,138.108877 L16.2704727,138.108877 C13.3693627,138.108877 11.0174261,135.842324 11.0174261,132.942185 C11.0174261,130.042045 13.3693627,127.775492 16.2704727,127.775492 L16.2704727,127.775492 Z" id="Combined-Shape" fill="#C2C4D6" fill-rule="nonzero" opacity="0.3"></path>
                        <polygon id="Path" fill="#B44F29" fill-rule="nonzero" points="126.816347 92.251934 68.3788714 126.80231 68.3788714 70.0715412 126.816347 35.522135"></polygon>
                        <polygon id="Path" fill="#FF986D" fill-rule="nonzero" points="108.263797 18.2464617 49.8272918 52.7968381 68.3788714 70.0715412 126.816347 35.522135"></polygon>
                        <polygon id="Path" fill="#DB6945" fill-rule="nonzero" points="126.816347 92.251934 182.693278 113.579459 182.693278 56.8486894 126.816347 35.522135"></polygon>
                        <polygon id="Path" fill="#DB6945" fill-rule="nonzero" points="169.321975 108.674739 182.693278 113.579459 182.693278 56.8486894 169.321975 51.94397"></polygon>
                        <polygon id="Path" fill="#FF986D" fill-rule="nonzero" points="148.298145 18.2464617 204.176046 39.5739863 182.693278 56.8486894 126.816347 35.522135"></polygon>
                        <path d="M126.815377,93.9586405 C125.873325,93.9586405 125.109641,93.1949564 125.109641,92.2529043 L125.109641,38.5125099 L69.2472638,71.5415016 C68.4376084,72.0020886 67.4081926,71.728409 66.9341712,70.9265449 C66.4601499,70.1246809 66.7166291,69.0908454 67.5104789,68.6035213 L125.946984,34.0531449 C126.474626,33.741996 127.128503,33.73729 127.660569,34.0408121 C128.192635,34.3443342 128.521375,34.9095837 128.522083,35.522135 L128.522083,92.2529043 C128.522083,93.1951133 127.757586,93.9586405 126.815377,93.9586405 Z" id="Path" fill="#000000" fill-rule="nonzero"></path>
                        <path d="M68.3788714,71.7782513 C67.9468426,71.7791334 67.5306287,71.6157694 67.2145463,71.3212501 L48.6619964,54.0504281 C48.2680116,53.6843442 48.0697527,53.1538904 48.1270475,52.6191393 C48.1843423,52.0843881 48.4904795,51.6079768 48.9530777,51.3336696 L107.395405,16.7784418 C108.046177,16.3929518 108.873187,16.4826466 109.426182,16.9986933 L127.978732,34.2695153 C128.37194,34.635992 128.569654,35.1662138 128.512391,35.700666 C128.455128,36.2351181 128.149573,36.7114183 127.68765,36.9862738 L69.2511449,71.5366503 C68.9874485,71.6942632 68.6860804,71.7782513 68.3788714,71.7782513 L68.3788714,71.7782513 Z M52.6604828,53.104414 L68.6088256,67.9544101 L123.983156,35.2155294 L108.033843,20.364563 L52.6604828,53.104414 Z" id="Shape" fill="#000000" fill-rule="nonzero"></path>
                        <path d="M145.122448,44.2167328 C144.914474,44.2168542 144.708253,44.1787017 144.514088,44.1041811 L126.207017,37.1182307 C125.61114,36.9207425 125.171775,36.4120814 125.063035,35.7938203 C124.954294,35.1755593 125.193734,34.5475096 125.686467,34.1585557 C126.1792,33.7696019 126.845681,33.6825361 127.421796,33.931861 L145.728867,40.9178115 C146.496979,41.2115892 146.946118,42.0116004 146.796977,42.8203384 C146.647837,43.6290764 145.942882,44.2162592 145.120508,44.2167328 L145.122448,44.2167328 Z" id="Path" fill="#000000" fill-rule="nonzero"></path>
                        <path d="M182.402197,58.5563662 C182.194267,58.5560079 181.988132,58.5178713 181.793837,58.4438148 L143.674804,43.8082485 C143.092028,43.6004459 142.667354,43.0935158 142.564883,42.483344 C142.462412,41.8731721 142.698194,41.2553267 143.181118,40.8685528 C143.664043,40.4817789 144.318472,40.3866549 144.891524,40.6199383 L183.010557,55.2555046 C183.776377,55.5510846 184.223289,56.3499776 184.074418,57.1572481 C183.925548,57.9645186 183.223074,58.5514512 182.402197,58.5544256 L182.402197,58.5563662 Z" id="Path" fill="#000000" fill-rule="nonzero"></path>
                        <path d="M182.694248,58.555396 C181.97042,58.555396 181.325521,58.0982326 181.085461,57.4153719 C180.845401,56.7325112 181.062463,55.9724983 181.62695,55.5194183 L200.791741,40.1076353 L148.60475,20.1899143 L127.884615,36.8514062 C127.148478,37.4018762 126.108544,37.2700423 125.533054,36.5532955 C124.957564,35.8365487 125.053513,34.7926916 125.750019,34.1928639 L147.232787,16.9171905 C147.705423,16.5375055 148.344003,16.4370465 148.910386,16.6532768 L204.788287,37.9798312 C205.358802,38.1985645 205.768979,38.7054452 205.863904,39.3090354 C205.958828,39.9126257 205.724033,40.5209386 205.248195,40.9042277 L183.766398,58.1750497 C183.463302,58.4212019 183.084707,58.555396 182.694248,58.555396 Z" id="Path" fill="#000000" fill-rule="nonzero"></path>
                        <polygon id="Path" fill="#FF986D" fill-rule="nonzero" points="182.829116 113.455264 124.39261 148.00467 124.39261 91.2748712 182.829116 56.7244947"></polygon>
                        <path d="M125.958871,99.5084983 L138.949117,112.658706 C140.573908,114.303504 143.114491,114.619844 145.093019,113.423712 L181.882161,91.1826003 L181.882161,91.1826003 L181.882161,81.1622227 L125.96639,92.1729746 L125.958871,99.5084983 Z" id="Path-2" fill="#B44F29"></path>
                        <polygon id="Path" fill="#DB6945" fill-rule="nonzero" points="124.256772 148.00467 124.256772 91.2748712 68.3788714 69.9473465 68.3788714 126.678116"></polygon>
                        <polygon id="Path" fill="#DB6945" fill-rule="nonzero" points="68.3788714 126.678116 74.7836296 128.854433 74.7836296 72.1236642 68.3788714 69.9473465"></polygon>
                        <path d="M124.393581,149.712353 C123.623636,149.71433 122.947701,149.200547 122.743561,148.458155 C122.53942,147.715764 122.857629,146.928614 123.520337,146.53665 L181.119499,112.480142 L181.119499,59.7158399 L125.257122,92.7438613 C124.447466,93.2044483 123.418051,92.9307687 122.944029,92.1289046 C122.470008,91.3270406 122.726487,90.2932051 123.520337,89.805881 L181.956842,55.2555046 C182.484341,54.944202 183.138208,54.9394397 183.670186,55.2430258 C184.202163,55.5466119 184.530971,56.1119879 184.530971,56.7244947 L184.530971,113.455264 C184.530971,114.058497 184.212735,114.616979 183.693627,114.924254 L125.257122,149.474631 C124.995701,149.62964 124.697502,149.712353 124.393581,149.712353 Z" id="Path" fill="#000000" fill-rule="nonzero"></path>
                        <path d="M124.256772,131.969976 C123.314185,131.969976 122.550066,131.205855 122.550066,130.263267 L122.550066,92.4498692 L70.0846076,72.4254184 L70.0846076,121.196085 C70.0993763,121.81536 69.7774411,122.394019 69.2434599,122.707998 C68.7094788,123.021977 68.0472937,123.021977 67.5133126,122.707998 C66.9793314,122.394019 66.6573962,121.81536 66.6716777,121.196085 L66.6716777,69.9473465 C66.6727733,69.3861202 66.9491053,68.8610198 67.4113421,68.5427234 C67.8735789,68.2244271 68.4627049,68.153573 68.9872312,68.3531915 L124.865132,89.6807161 C125.527503,89.9320351 125.965746,90.5664251 125.96639,91.2748712 L125.96639,130.263267 C125.96639,130.716418 125.786178,131.150967 125.465478,131.471121 C125.144779,131.791274 124.709923,131.970746 124.256772,131.969976 Z" id="Path" fill="#000000" fill-rule="nonzero"></path>
                        <path d="M124.255802,149.711377 C124.048248,149.711318 123.842436,149.673509 123.648413,149.599796 L67.7705115,128.272271 C67.1094653,128.019777 66.6726257,127.385742 66.6716777,126.678116 L66.6716777,120.707069 C66.6573962,120.087794 66.9793314,119.509135 67.5133126,119.195156 C68.0472937,118.881177 68.7094788,118.881177 69.2434599,119.195156 C69.7774411,119.509135 70.0993763,120.087794 70.0846076,120.707069 L70.0846076,125.503118 L122.550066,145.527569 L122.550066,127.66003 C122.535297,127.040756 122.857232,126.462096 123.391214,126.148117 C123.925195,125.834138 124.58738,125.834138 125.121361,126.148117 C125.655342,126.462096 125.977277,127.040756 125.962996,127.66003 L125.962996,148.009521 C125.962996,148.462079 125.782665,148.896087 125.462567,149.216002 C125.14247,149.535918 124.70836,149.715258 124.255802,149.715258 L124.255802,149.711377 Z" id="Path" fill="#000000" fill-rule="nonzero"></path>
                        <path d="M152.62043,120.546705 C152.522852,120.546824 152.425451,120.538383 152.329349,120.521475 C151.400763,120.360605 150.778318,119.477541 150.938951,118.548914 C151.36781,116.071813 152.588411,113.871238 154.384383,112.353735 C156.263797,110.76152 158.539083,110.098825 160.78817,110.488874 C162.386365,110.771388 163.850101,111.563848 164.960335,112.747665 C165.589928,113.432308 165.555387,114.495013 164.882663,115.137326 C164.20994,115.779639 163.146774,115.76502 162.491966,115.104453 C161.886018,114.451361 161.085191,114.011638 160.208919,113.850863 C158.971823,113.636433 157.686214,114.029393 156.593689,114.956972 C155.410929,115.959261 154.597842,117.441835 154.30482,119.129136 C154.164252,119.949237 153.452488,120.548249 152.62043,120.546705 L152.62043,120.546705 Z" id="Path" fill="#000000" fill-rule="nonzero"></path>
                        <polygon id="Path" fill="#FF986D" fill-rule="nonzero" points="101.839634 108.763034 124.256772 91.2748712 68.3788714 69.9473465 45.9617325 87.4355092"></polygon>
                        <path d="M101.838663,110.469755 C101.630693,110.469755 101.42448,110.431667 101.230304,110.357189 L45.3524024,89.0296643 C44.7771998,88.8101605 44.3649192,88.2977245 44.2736604,87.6888634 C44.1824016,87.0800024 44.4263279,86.4692112 44.9118994,86.0907138 L67.3251572,68.6025511 C67.7962157,68.235096 68.4250537,68.1405311 68.9833502,68.3531915 L124.861251,89.6807161 C125.436454,89.90022 125.848734,90.4126559 125.939993,91.021517 C126.031252,91.6303781 125.787326,92.2411692 125.301754,92.6196667 L115.964837,99.9102822 C115.221859,100.489821 114.149748,100.357328 113.570209,99.6143496 C112.99067,98.8713716 113.123163,97.7992599 113.866141,97.219721 L120.822014,91.7929958 L68.6689824,71.8878883 L49.3955212,86.9270873 L101.548552,106.833165 L114.927618,96.3086366 C115.40824,95.9337406 116.052358,95.8437315 116.617339,96.0725148 C117.18232,96.3012981 117.582329,96.8141162 117.666687,97.4177955 C117.751045,98.0214747 117.506936,98.6243019 117.026314,98.9991978 L102.888496,110.115592 C102.587462,110.346709 102.218182,110.471282 101.838663,110.469755 L101.838663,110.469755 Z" id="Path" fill="#000000" fill-rule="nonzero"></path>
                        <polygon id="Path" fill="#FF986D" fill-rule="nonzero" points="200.128076 74.2126574 141.69157 108.763034 124.39261 91.2748712 182.829116 56.7244947"></polygon>
                        <path d="M141.69157,110.469741 C141.235823,110.469741 140.799001,110.287502 140.478732,109.963259 L123.178802,92.4750963 C122.80948,92.1009764 122.633057,91.5776024 122.700524,91.0562463 C122.767992,90.5348902 123.071829,90.0736654 123.524218,89.805881 L181.960723,55.2555046 C182.634238,54.8575108 183.492151,54.9686996 184.041955,55.5252399 L201.340914,73.0134026 C201.710679,73.3870355 201.887517,73.9102883 201.820216,74.431631 C201.752915,74.9529736 201.448995,75.414165 200.996468,75.6816476 L191.019173,81.5838054 C190.209517,82.0443924 189.180101,81.7707128 188.70608,80.9688488 C188.232059,80.1669847 188.488538,79.1331492 189.282388,78.6458252 L197.376387,73.8575383 L182.551618,58.8678231 L127.143328,91.6270795 L141.968097,106.614854 L190.056664,78.1859167 C190.582091,77.8633708 191.24063,77.8492742 191.779378,78.1490407 C192.318126,78.4488073 192.653322,79.0158316 192.656238,79.6323547 C192.659154,80.2488778 192.329337,80.8190476 191.793449,81.123897 L142.559963,110.232024 C142.297087,110.387783 141.997126,110.469741 141.69157,110.469741 Z" id="Path" fill="#000000" fill-rule="nonzero"></path>
                        <path d="M58.1628891,39.3207456 C57.9476047,39.3205857 57.7342874,39.2797657 57.5341535,39.200432 L47.5830552,35.2572511 C46.7071826,34.9089382 46.2795109,33.9165399 46.6278237,33.0406673 C46.9761364,32.1647946 47.9685347,31.7371228 48.8444074,32.0854355 L58.796476,36.0276462 C59.5576473,36.329663 59.997028,37.1297412 59.8434536,37.934111 C59.6898792,38.7384808 58.9866396,39.320404 58.1677404,39.3207456 L58.1628891,39.3207456 Z" id="Path" fill="#000000" fill-rule="nonzero"></path>
                        <path d="M66.4606458,29.6888664 C65.8161494,29.6890091 65.2265385,29.326085 64.9363502,28.7506144 L60.4731041,19.8920411 C60.0492345,19.0504639 60.3878533,18.0246165 61.2294304,17.6007467 C62.0710076,17.1768769 63.096855,17.5154955 63.520725,18.3570725 L67.9839711,27.2146756 C68.2507669,27.7433793 68.2242438,28.3726295 67.9139035,28.8770068 C67.6035631,29.3813841 67.0538218,29.6887012 66.4616161,29.6888664 L66.4606458,29.6888664 Z" id="Path" fill="#000000" fill-rule="nonzero"></path>
                        <path d="M161.501591,11.9377603 C160.935472,11.9369956 160.406529,11.6557193 160.089369,11.1867822 C159.77221,10.7178451 159.708065,10.122209 159.918109,9.59649658 L162.995808,1.91874295 C163.358913,1.0637426 164.339126,0.656138354 165.201414,1.00158149 C166.063701,1.34702462 166.491379,2.31864775 166.163743,3.18785729 L163.085073,10.8656109 C162.82604,11.5130856 162.198959,11.9377603 161.501591,11.9377603 Z" id="Path" fill="#000000" fill-rule="nonzero"></path>
                        <path d="M172.847939,18.3357268 C172.109129,18.3358337 171.454136,17.86056 171.225081,17.1581543 C170.996026,16.4557487 171.244924,15.6857155 171.841768,15.2502651 L178.275635,10.5590053 C178.768043,10.1998816 179.414637,10.1307344 179.971852,10.3776107 C180.529066,10.6244871 180.912246,11.1498806 180.977052,11.7558807 C181.041858,12.3618807 180.778444,12.9564214 180.286036,13.3155449 L173.85217,18.007775 C173.560783,18.2210327 173.209028,18.3359052 172.847939,18.3357268 L172.847939,18.3357268 Z" id="Path" fill="#000000" fill-rule="nonzero"></path>
                        <path d="M91.8012109,18.681143 C90.6548259,13.4903255 93.9152393,8.34800285 99.0991595,7.17082152 C104.28308,5.99364019 109.444668,9.22346754 110.652604,14.4003078 L113.205387,46.3804367 C113.825919,49.1133522 112.113494,51.8318589 109.380579,52.4523915 C106.647663,53.0729241 103.929157,51.3604995 103.308624,48.6275841 L91.8012109,18.681143 Z" id="Path" fill="#F50AA0" fill-rule="nonzero"></path>
                        <circle id="Oval" fill="#F50AA0" fill-rule="nonzero" transform="translate(112.246650, 64.643495) rotate(-45.000000) translate(-112.246650, -64.643495) " cx="112.24665" cy="64.6434954" r="6.33586897"></circle>
                        <path d="M109.381549,52.4504514 C109.948633,52.3208852 110.488979,52.0940446 110.978615,51.7799942 C108.852101,51.5241783 107.115541,49.9600317 106.639564,47.871743 L95.1292401,17.9223912 C94.0954461,13.3603087 96.4782118,8.71289393 100.785919,6.88944077 C100.213878,6.91370332 99.6450642,6.98805175 99.0860048,7.11163281 C93.8810281,8.29499781 90.620003,13.4727655 91.8012109,18.6782322 L103.312505,48.6246732 C103.609654,49.9369954 104.416123,51.0774464 105.554383,51.7949778 C106.692643,52.5125092 108.069386,52.7483022 109.381549,52.4504514 L109.381549,52.4504514 Z" id="Path" fill="#FEF0F9" fill-rule="nonzero"></path>
                        <path d="M109.395133,65.2910165 C108.767341,62.5208968 110.060703,59.6716144 112.559187,58.3205903 C109.879017,58.1816671 107.402149,59.7466706 106.376869,62.2268739 C105.351589,64.7070771 106.000416,67.5641971 107.996354,69.3583089 C109.992292,71.1524207 112.902161,71.4941449 115.25945,70.2112602 C112.422477,70.0718623 110.025327,68.06062 109.395133,65.2910165 L109.395133,65.2910165 Z" id="Path" fill="#FEF0F9" fill-rule="nonzero"></path>
                        <path d="M107.324575,15.1561488 L109.877358,47.1362777 C110.350811,49.2256277 109.459829,51.3870567 107.651556,52.5358352 C109.289808,52.7375741 110.923551,52.1280295 112.029297,50.9025128 C113.135044,49.6769961 113.573953,47.9893886 113.205387,46.3804367 L110.651634,14.4003078 C109.469586,9.1966083 104.29422,5.93529427 99.0898859,7.11454362 C98.532615,7.24445643 97.9878203,7.42302444 97.4617713,7.64819262 C102.133049,7.43441796 106.286977,10.5965517 107.324575,15.1561488 L107.324575,15.1561488 Z" id="Path" fill="#D00386" fill-rule="nonzero"></path>
                        <path d="M110.842777,58.4651607 C110.280181,58.5943775 109.737934,58.8000459 109.231157,59.0764314 C112.068851,59.2141944 114.467036,61.2259768 115.096191,63.9964728 C115.725346,66.7669689 114.431286,69.6172269 111.931421,70.9671013 C114.399125,71.0908121 116.713514,69.7682668 117.859713,67.5794097 C119.005912,65.3905526 118.77467,62.7349836 117.267389,60.7771862 C115.760107,58.8193888 113.251957,57.9167806 110.842777,58.4651607 L110.842777,58.4651607 Z" id="Path" fill="#D00386" fill-rule="nonzero"></path>
                        <path d="M108.245362,54.2852337 C105.133833,54.2772682 102.426734,52.1533474 101.678569,49.1330952 L90.2089964,19.293384 C90.1796793,19.2169518 90.1560059,19.1384729 90.1381666,19.0585784 C88.8110568,12.9609849 92.6457958,6.93307338 98.7311752,5.55103705 C104.816555,4.16900072 110.878798,7.94923164 112.315649,14.0219022 C112.334228,14.1016761 112.346556,14.1827781 112.352519,14.2644699 L114.896569,46.131077 C115.304352,48.1287939 114.793091,50.2040243 113.503973,51.7836871 C112.214856,53.36335 110.284273,54.2803124 108.245362,54.2813526 L108.245362,54.2852337 Z M93.4399984,18.1911562 L104.904719,48.0182539 C104.934034,48.0943558 104.957708,48.172512 104.975549,48.2520892 C105.410826,50.0385456 107.198842,51.1453911 108.991951,50.7383843 C110.785059,50.3313776 111.920007,48.5610664 111.541372,46.7617531 C111.522792,46.6819791 111.510465,46.6008771 111.504502,46.5191854 L108.961422,14.6671323 C107.988289,10.3802061 103.724169,7.69384546 99.437243,8.66697773 C95.1503167,9.64011001 92.4639557,13.9042298 93.4370876,18.1911562 L93.4399984,18.1911562 Z" id="Shape" fill="#000000" fill-rule="nonzero"></path>
                        <path d="M112.244819,72.6864213 C108.035086,72.6864213 104.537586,69.4402022 104.224423,65.2421338 C103.911261,61.0440654 106.888409,57.3148038 111.051557,56.6902683 C115.214705,56.0657327 119.15507,58.7572624 120.087518,62.8624284 L120.087518,62.8624284 C120.62776,65.2475428 120.053984,67.7489025 118.528229,69.6601072 C117.002474,71.5713119 114.690351,72.6849126 112.244819,72.6864213 L112.244819,72.6864213 Z M112.254521,60.0127332 C110.286524,60.0087449 108.531036,61.2492289 107.877631,63.1055935 C107.224225,64.9619581 107.815693,67.0285265 109.352315,68.2580884 C110.888936,69.4876503 113.034909,69.611506 114.702786,68.5668929 C116.370662,67.5222799 117.195956,65.5374805 116.76046,63.6182695 L116.76046,63.6182695 C116.282078,61.5133222 114.413138,60.0178485 112.254521,60.0127332 Z" id="Shape" fill="#000000" fill-rule="nonzero"></path>
                        <path d="M146.806838,11.0850019 C146.090493,11.0852933 145.450038,10.6385636 145.202981,9.96616979 L142.409571,2.28841617 C142.088051,1.4028979 142.545263,0.424400457 143.430781,0.102880964 C144.316299,-0.218638528 145.294797,0.238572817 145.616316,1.12409109 L148.409726,8.80184472 C148.731739,9.68709318 148.275193,10.6657782 147.389971,10.9878651 C147.202828,11.0543106 147.005414,11.0871581 146.806838,11.0850019 L146.806838,11.0850019 Z" id="Path" fill="#000000" fill-rule="nonzero"></path>
                    </g>
                </g>
            </g>
        </g>
    </g>
</svg>