<svg width="46" height="32" viewBox="0 0 46 32" fill="none" xmlns="http://www.w3.org/2000/svg">
<path d="M45.5 29.5112C45.5 30.7487 44.4965 31.75 43.2612 31.75H25.2387C24.645 31.75 24.0756 31.5141 23.6557 31.0942C23.2359 30.6744 23 30.105 23 29.5112C23 28.9175 23.2359 28.348 23.6557 27.9282C24.0756 27.5083 24.645 27.2725 25.2387 27.2725H43.2612C44.4987 27.2725 45.5 28.2737 45.5 29.5112Z" fill="black"/>
<path d="M45.5 16C45.5 17.2375 44.4965 18.2387 43.2612 18.2387H2.73875C2.145 18.2387 1.57556 18.0029 1.15571 17.583C0.735868 17.1632 0.5 16.5937 0.5 16C0.5 15.4062 0.735868 14.8368 1.15571 14.4169C1.57556 13.9971 2.145 13.7612 2.73875 13.7612H43.2612C44.4987 13.7612 45.5 14.7647 45.5 16Z" fill="black"/>
<path d="M43.2612 4.7275C43.855 4.7275 44.4244 4.49163 44.8443 4.07178C45.2641 3.65194 45.5 3.0825 45.5 2.48875C45.5 1.895 45.2641 1.32556 44.8443 0.905714C44.4244 0.485867 43.855 0.25 43.2612 0.25H16.2387C15.9448 0.25 15.6536 0.307907 15.382 0.420415C15.1104 0.532922 14.8636 0.697827 14.6557 0.905714C14.4478 1.1136 14.2829 1.3604 14.1704 1.63202C14.0579 1.90364 14 2.19475 14 2.48875C14 2.78275 14.0579 3.07386 14.1704 3.34548C14.2829 3.6171 14.4478 3.8639 14.6557 4.07178C14.8636 4.27967 15.1104 4.44458 15.382 4.55708C15.6536 4.66959 15.9448 4.7275 16.2387 4.7275H43.2612Z" fill="black"/>
</svg>
