<svg width="140" height="56" viewBox="0 0 140 56" fill="none" xmlns="http://www.w3.org/2000/svg">
<path d="M54.2885 19.8201L45.0388 17.958L40.5531 17.0552L18.2681 56.0001L54.2885 19.8201Z" fill="white"/>
<path d="M50.1401 6.31738L41.4673 16.141L48.8524 17.6276L54.587 18.7823L50.1401 6.31738Z" fill="white"/>
<path d="M3.41211 9.57812L30.2756 32.3437L39.0633 16.755L3.41211 9.57812Z" fill="white"/>
<path d="M13.7251 0L21.1014 12.0407L39.5115 15.7473L13.7251 0Z" fill="white"/>
<path d="M72.0423 10.0082L51.4863 5.79248L55.105 16.3908L56.0117 19.0458" fill="white"/>
<path d="M73.6107 29.5249C73.0164 29.3418 72.3974 29.2512 71.7756 29.2564C68.3739 29.2564 66.4494 31.853 66.4494 35.6572V45.7277H59.7354V23.5271H66.4494V26.3471C67.7072 24.1392 70.0864 22.8119 72.6258 22.9012C73.3384 22.9043 74.0469 23.0097 74.7295 23.2144L73.6107 29.5249Z" fill="white"/>
<path d="M75.9824 23.5271H82.6964V45.7277H75.9824V23.5271Z" fill="white"/>
<path d="M98.4216 45.7277H92.3831L83.667 23.5271H90.5548L95.4018 37.2242L100.249 23.5271H107.136L98.4216 45.7277Z" fill="white"/>
<path d="M117.002 46.3546C111.049 46.3546 105.31 42.4605 105.31 34.6276C105.31 26.7947 111.049 22.9011 117.002 22.9011C122.954 22.9011 128.694 26.7952 128.694 34.6276C128.694 42.46 122.954 46.3546 117.002 46.3546ZM122.231 34.6276C122.154 31.7394 119.75 29.4607 116.862 29.538C113.973 29.6153 111.695 32.0193 111.772 34.9075C111.848 37.7413 114.167 39.999 117.002 39.999C119.837 40.0538 122.181 37.7993 122.235 34.9635C122.238 34.8515 122.236 34.7395 122.231 34.6276Z" fill="white"/>
<path d="M130.94 23.5271V23.9503H130.182V26.2189H129.74V23.9503H128.979V23.5271H130.94Z" fill="white"/>
<path d="M133.804 23.5272V26.2185H133.362V24.2999L132.543 25.6534H132.489L131.671 24.2984V26.2209H131.229V23.5271H131.706L132.517 24.8728L133.332 23.5271H133.804V23.5272Z" fill="white"/>
</svg>
