<?xml version="1.0" encoding="utf-8"?>
<!-- Generator: Adobe Illustrator 26.0.1, SVG Export Plug-In . SVG Version: 6.00 Build 0)  -->
<svg version="1.1" id="Layer_1" xmlns="http://www.w3.org/2000/svg" xmlns:xlink="http://www.w3.org/1999/xlink" x="0px" y="0px"
	 viewBox="0 0 940 374" style="enable-background:new 0 0 940 374;" xml:space="preserve">
<style type="text/css">
	.st0{fill:#F50AA0;}
	.st1{fill:#7D32AD;}
	.st2{fill:#C823BE;}
	.st3{fill:#3241BE;}
</style>
<g>
	<g>
		<path d="M502.4,300.8V153.8h47v147.1H502.4z"/>
		<path d="M662.3,301.8h-33l-63.4-148h48.2l33,88.3h0.6l31.1-88.3h45.4L662.3,301.8z"/>
		<path d="M860.5,280.9c-14,14.3-33.6,23-57.5,23c-22.4,0-40.7-6.5-54.1-18.3c-15.5-13.7-24.2-33.9-24.2-56.9
			c0-22.1,8.1-41.7,22.1-56c13.7-14,33-22.4,56.3-22.4c25.2,0,45.4,8.4,59.1,23c12.7,13.7,19.3,32.3,19.3,53.2
			C881.4,247.7,874.2,267.3,860.5,280.9z M802.1,186.7c-20.8,0-29.5,18.3-29.5,41c0,24.2,11.5,41,30.8,41c20.8,0,29.5-18.3,29.5-41
			C832.9,203.5,821.4,186.7,802.1,186.7z"/>
		<path d="M480.4,200.6c-29.2-13.4-62,3.3-61.9,14.9v85.3h-47V153.8h47v14.9c14.8-9.2,28.3-18.7,61.9-14.9V200.6z"/>
	</g>
	<g>
		<path d="M910.8,158.3h-7v22h-3.4v-22h-7.2v-3h18.6L910.8,158.3z"/>
		<path d="M936.6,180.3v-17c0-0.9,0-1.5,0.1-2.6h0c-0.4,1-1,1.9-1.4,2.5l-6.2,9.9h-2l-6.6-9.9c-0.4-0.6-0.9-1.3-1.4-2.5h-0.1
			c0.2,1.2,0.2,1.7,0.2,2.6v17h-3.4v-25h3.3l7.6,11.3c0.6,1,1.1,1.7,1.4,2.4h0.1c0.3-0.6,0.6-1.3,1.3-2.4l7.1-11.2h3.4v25H936.6z"/>
	</g>
	<g>
		<polygon class="st0" points="338.5,133.6 276.6,121.6 246.6,115.7 101.9,374 		"/>
		<polygon class="st1" points="310.5,39 253,107.1 302.5,116.8 340.9,124.3 		"/>
		<polygon class="st2" points="0,56.4 180,214.7 236.6,113.8 		"/>
		<polygon class="st1" points="66.5,0 118.3,72.2 240,104.5 		"/>
		<polygon class="st3" points="319.4,35.3 344.5,105.9 350.9,123.5 466.7,56.2 		"/>
	</g>
</g>
</svg>
