<?xml version="1.0" encoding="utf-8"?>
<!-- Generator: Adobe Illustrator 18.1.1, SVG Export Plug-In . SVG Version: 6.00 Build 0)  -->
<svg id="svg" version="1.1" xmlns="http://www.w3.org/2000/svg" xmlns:xlink="http://www.w3.org/1999/xlink" width="50px" height="50px" viewBox="0, 0, 400,400"><g id="svgg"><path id="path0" d="M172.800 60.200 L 172.800 68.400 184.800 68.400 L 196.800 68.400 196.800 60.200 L 196.800 52.000 184.800 52.000 L 172.800 52.000 172.800 60.200 M196.508 82.086 C 192.954 85.500,189.511 88.694,186.600 91.274 C 183.344 94.161,175.686 101.033,172.013 104.365 C 164.549 111.136,163.327 112.238,160.216 115.000 C 158.482 116.540,156.867 117.980,156.628 118.200 C 156.254 118.545,153.155 121.327,147.050 126.800 C 146.191 127.570,145.289 128.382,145.044 128.604 C 138.702 134.376,136.205 136.494,135.369 136.812 C 134.740 137.051,122.079 137.200,102.374 137.200 L 70.400 137.200 70.400 221.176 C 70.400 279.952,70.527 305.232,70.824 305.415 C 71.058 305.559,129.378 305.778,200.424 305.901 L 329.600 306.124 329.600 221.669 L 329.600 137.214 297.087 137.107 L 264.575 137.000 258.987 131.981 C 255.914 129.220,252.787 126.430,252.039 125.781 C 251.290 125.131,250.300 124.240,249.839 123.800 C 249.377 123.360,246.300 120.592,243.000 117.649 C 239.700 114.705,235.384 110.835,233.408 109.049 C 231.432 107.262,228.912 104.990,227.808 104.000 C 226.704 103.010,225.710 102.110,225.600 102.000 C 225.490 101.890,223.781 100.360,221.803 98.600 C 219.824 96.840,217.574 94.829,216.803 94.131 C 216.031 93.433,214.960 92.482,214.422 92.017 C 210.898 88.969,206.596 85.026,204.163 82.614 C 202.603 81.066,201.032 79.556,200.671 79.258 C 200.094 78.780,199.595 79.119,196.508 82.086 M205.582 102.025 C 218.972 106.421,223.188 123.195,213.370 133.013 C 211.123 135.260,207.401 137.600,206.075 137.600 C 205.620 137.600,205.136 137.780,205.000 138.000 C 204.660 138.551,196.994 138.507,195.228 137.945 C 185.963 134.993,180.120 126.124,181.640 117.317 C 183.614 105.878,195.056 98.570,205.582 102.025 M120.720 153.280 C 121.277 153.837,121.418 186.237,120.868 187.104 C 120.616 187.500,116.887 187.586,103.574 187.504 L 86.600 187.400 86.496 170.600 C 86.438 161.360,86.477 153.575,86.583 153.300 C 86.855 152.590,120.010 152.570,120.720 153.280 M189.504 153.132 C 189.900 153.384,189.986 157.113,189.904 170.426 L 189.800 187.400 172.826 187.504 C 159.513 187.586,155.784 187.500,155.532 187.104 C 154.982 186.237,155.123 153.837,155.680 153.280 C 156.237 152.723,188.637 152.582,189.504 153.132 M244.304 153.132 C 244.700 153.384,244.786 157.113,244.704 170.426 L 244.600 187.400 227.400 187.400 L 210.200 187.400 210.096 170.600 C 210.038 161.360,210.077 153.575,210.183 153.300 C 210.404 152.724,243.405 152.562,244.304 153.132 M315.800 170.200 L 315.800 187.400 298.500 187.504 L 281.200 187.608 281.200 170.200 L 281.200 152.792 298.500 152.896 L 315.800 153.000 315.800 170.200 M120.426 207.614 C 121.439 208.156,121.657 240.723,120.654 241.555 C 120.261 241.881,115.389 241.979,103.354 241.904 L 86.600 241.800 86.496 224.826 C 86.414 211.513,86.500 207.784,86.896 207.532 C 87.668 207.042,119.502 207.119,120.426 207.614 M244.129 207.700 C 244.755 208.159,244.802 209.561,244.705 225.000 L 244.600 241.800 227.400 241.800 L 210.200 241.800 210.096 224.730 C 209.998 208.720,210.035 207.649,210.696 207.477 C 212.504 207.005,243.463 207.212,244.129 207.700 M315.904 224.354 C 315.980 236.614,315.882 241.460,315.552 241.858 C 315.175 242.313,312.157 242.390,298.247 242.304 L 281.400 242.200 281.296 224.696 L 281.192 207.191 298.496 207.296 L 315.800 207.400 315.904 224.354 M190.000 224.557 C 190.000 239.651,189.930 241.541,189.367 241.757 C 188.076 242.253,156.188 242.028,155.680 241.520 C 155.158 240.998,154.951 208.382,155.467 207.867 C 155.613 207.720,163.443 207.600,172.867 207.600 L 190.000 207.600 190.000 224.557 " stroke="none" fill="#ea7e13" fill-rule="evenodd"></path><path id="path1" d="M182.389 0.134 C 182.273 0.256,180.604 0.390,178.679 0.432 C 176.754 0.475,175.084 0.665,174.966 0.855 C 174.849 1.045,173.539 1.200,172.056 1.200 C 170.573 1.200,169.189 1.370,168.980 1.577 C 168.771 1.785,167.664 1.996,166.520 2.048 C 165.376 2.099,164.532 2.289,164.644 2.471 C 164.756 2.652,163.857 2.800,162.647 2.800 C 161.437 2.800,160.336 2.980,160.200 3.200 C 160.064 3.420,159.243 3.600,158.376 3.600 C 157.509 3.600,156.800 3.780,156.800 4.000 C 156.800 4.220,156.001 4.400,155.024 4.400 C 154.047 4.400,153.136 4.580,153.000 4.800 C 152.864 5.020,152.221 5.200,151.571 5.200 C 150.921 5.200,150.077 5.358,149.695 5.551 C 148.539 6.135,146.196 6.800,145.295 6.800 C 144.829 6.800,144.336 6.980,144.200 7.200 C 144.064 7.420,143.434 7.600,142.800 7.600 C 142.166 7.600,141.536 7.780,141.400 8.000 C 141.264 8.220,140.623 8.400,139.976 8.400 C 139.329 8.400,138.800 8.580,138.800 8.800 C 138.800 9.020,138.365 9.200,137.833 9.200 C 137.302 9.200,136.807 9.374,136.733 9.587 C 136.660 9.800,136.015 10.019,135.300 10.072 C 134.585 10.126,134.000 10.306,134.000 10.473 C 134.000 10.639,133.745 10.677,133.432 10.557 C 133.120 10.437,132.410 10.637,131.853 11.002 C 131.297 11.366,130.746 11.658,130.628 11.650 C 130.332 11.629,127.551 12.735,126.705 13.210 C 126.323 13.425,125.548 13.600,124.982 13.600 C 124.398 13.600,124.060 13.773,124.200 14.000 C 124.336 14.220,124.068 14.400,123.604 14.400 C 123.140 14.400,122.252 14.663,121.631 14.984 C 121.010 15.305,120.360 15.440,120.187 15.284 C 120.013 15.128,120.001 15.225,120.159 15.500 C 120.417 15.948,119.721 16.209,118.700 16.047 C 118.535 16.021,118.400 16.180,118.400 16.400 C 118.400 16.620,118.040 16.800,117.600 16.800 C 117.160 16.800,116.800 16.980,116.800 17.200 C 116.800 17.420,116.440 17.600,116.000 17.600 C 115.560 17.600,115.200 17.780,115.200 18.000 C 115.200 18.220,114.838 18.400,114.395 18.400 C 113.612 18.400,112.008 19.127,111.596 19.668 C 111.484 19.815,111.128 19.995,110.806 20.068 C 110.483 20.141,109.975 20.427,109.677 20.704 C 109.379 20.981,108.970 21.105,108.768 20.980 C 108.565 20.855,108.400 20.901,108.400 21.082 C 108.400 21.263,107.725 21.718,106.900 22.094 C 105.391 22.780,103.172 24.028,102.800 24.400 C 102.355 24.845,100.778 25.600,100.294 25.600 C 100.009 25.600,99.522 25.953,99.211 26.385 C 98.899 26.817,98.121 27.286,97.482 27.426 C 96.842 27.567,95.994 27.978,95.597 28.341 C 94.397 29.438,92.619 30.601,92.300 30.498 C 92.135 30.444,92.000 30.591,92.000 30.824 C 92.000 31.057,91.820 31.136,91.600 31.000 C 91.380 30.864,91.200 30.943,91.200 31.176 C 91.200 31.409,90.938 31.600,90.618 31.600 C 90.298 31.600,89.577 32.060,89.015 32.622 C 88.453 33.183,87.848 33.553,87.670 33.443 C 87.491 33.333,87.093 33.593,86.785 34.021 C 86.476 34.450,86.038 34.800,85.812 34.801 C 85.585 34.801,84.770 35.341,84.000 36.000 C 83.230 36.659,82.452 37.199,82.271 37.199 C 81.754 37.201,80.811 38.277,81.086 38.552 C 81.222 38.689,80.954 38.800,80.489 38.800 C 80.025 38.800,79.410 39.126,79.123 39.525 C 78.835 39.924,77.981 40.689,77.224 41.225 C 76.466 41.761,75.315 42.695,74.664 43.300 C 74.014 43.905,73.271 44.400,73.013 44.400 C 72.755 44.400,72.162 44.805,71.695 45.300 C 71.228 45.795,70.105 46.830,69.200 47.600 C 68.294 48.370,67.254 49.315,66.888 49.700 C 66.522 50.085,66.077 50.400,65.901 50.400 C 65.724 50.400,64.769 51.210,63.779 52.200 C 62.789 53.190,62.119 54.001,62.289 54.003 C 62.460 54.004,62.060 54.363,61.400 54.800 C 60.740 55.237,60.338 55.596,60.507 55.597 C 60.676 55.599,59.686 56.742,58.307 58.138 C 56.928 59.533,55.724 60.612,55.630 60.534 C 55.537 60.457,55.133 60.890,54.733 61.497 C 54.333 62.104,54.004 62.460,54.003 62.289 C 54.001 62.119,53.190 62.789,52.200 63.779 C 51.210 64.769,50.400 65.724,50.400 65.901 C 50.400 66.077,50.085 66.522,49.700 66.888 C 49.315 67.254,48.370 68.294,47.600 69.200 C 46.830 70.105,45.795 71.228,45.300 71.695 C 44.805 72.162,44.400 72.755,44.400 73.013 C 44.400 73.271,43.905 74.014,43.300 74.664 C 42.695 75.315,41.761 76.466,41.225 77.224 C 40.689 77.981,39.924 78.835,39.525 79.123 C 39.126 79.410,38.800 80.025,38.800 80.489 C 38.800 80.954,38.689 81.222,38.552 81.086 C 38.277 80.811,37.201 81.754,37.199 82.271 C 37.199 82.452,36.659 83.230,36.000 84.000 C 35.341 84.770,34.801 85.585,34.801 85.812 C 34.800 86.038,34.450 86.476,34.021 86.785 C 33.593 87.093,33.333 87.491,33.443 87.670 C 33.553 87.848,33.183 88.453,32.622 89.015 C 32.060 89.577,31.600 90.298,31.600 90.618 C 31.600 90.938,31.409 91.200,31.176 91.200 C 30.943 91.200,30.864 91.380,31.000 91.600 C 31.136 91.820,31.057 92.000,30.824 92.000 C 30.591 92.000,30.444 92.135,30.498 92.300 C 30.601 92.619,29.438 94.397,28.341 95.597 C 27.978 95.994,27.567 96.842,27.426 97.482 C 27.286 98.121,26.817 98.899,26.385 99.211 C 25.953 99.522,25.600 100.009,25.600 100.294 C 25.600 100.778,24.845 102.355,24.400 102.800 C 24.028 103.172,22.780 105.391,22.094 106.900 C 21.718 107.725,21.263 108.400,21.082 108.400 C 20.901 108.400,20.855 108.565,20.980 108.768 C 21.105 108.970,20.981 109.379,20.704 109.677 C 20.427 109.975,20.141 110.483,20.068 110.806 C 19.995 111.128,19.815 111.484,19.668 111.596 C 19.127 112.008,18.400 113.612,18.400 114.395 C 18.400 114.838,18.220 115.200,18.000 115.200 C 17.780 115.200,17.600 115.560,17.600 116.000 C 17.600 116.440,17.420 116.800,17.200 116.800 C 16.980 116.800,16.800 117.160,16.800 117.600 C 16.800 118.040,16.620 118.400,16.400 118.400 C 16.180 118.400,16.021 118.535,16.047 118.700 C 16.209 119.721,15.948 120.417,15.500 120.159 C 15.225 120.001,15.128 120.013,15.284 120.187 C 15.440 120.360,15.305 121.010,14.984 121.631 C 14.663 122.252,14.400 123.140,14.400 123.604 C 14.400 124.068,14.220 124.336,14.000 124.200 C 13.773 124.060,13.600 124.398,13.600 124.982 C 13.600 125.548,13.425 126.323,13.210 126.705 C 12.689 127.633,11.613 130.386,11.717 130.525 C 11.763 130.586,11.471 131.137,11.070 131.750 C 10.668 132.363,10.437 133.120,10.557 133.432 C 10.677 133.745,10.639 134.000,10.473 134.000 C 10.306 134.000,10.126 134.585,10.072 135.300 C 10.019 136.015,9.800 136.660,9.587 136.733 C 9.374 136.807,9.200 137.302,9.200 137.833 C 9.200 138.365,9.020 138.800,8.800 138.800 C 8.580 138.800,8.400 139.329,8.400 139.976 C 8.400 140.623,8.220 141.264,8.000 141.400 C 7.780 141.536,7.600 142.166,7.600 142.800 C 7.600 143.434,7.420 144.064,7.200 144.200 C 6.980 144.336,6.800 144.829,6.800 145.295 C 6.800 146.196,6.135 148.539,5.551 149.695 C 5.358 150.077,5.200 150.921,5.200 151.571 C 5.200 152.221,5.020 152.864,4.800 153.000 C 4.580 153.136,4.400 154.047,4.400 155.024 C 4.400 156.001,4.220 156.800,4.000 156.800 C 3.780 156.800,3.600 157.509,3.600 158.376 C 3.600 159.243,3.420 160.064,3.200 160.200 C 2.980 160.336,2.800 161.437,2.800 162.647 C 2.800 163.857,2.652 164.756,2.471 164.644 C 2.289 164.532,2.099 165.376,2.048 166.520 C 1.996 167.664,1.785 168.771,1.577 168.980 C 1.370 169.189,1.200 170.573,1.200 172.056 C 1.200 173.539,1.045 174.849,0.855 174.966 C 0.022 175.481,-0.140 223.202,0.685 224.843 C 0.950 225.369,1.264 226.925,1.383 228.300 C 1.906 234.333,2.093 235.590,2.436 235.378 C 2.639 235.252,2.800 236.220,2.800 237.576 C 2.800 238.925,2.977 240.000,3.200 240.000 C 3.420 240.000,3.600 240.619,3.600 241.376 C 3.600 242.133,3.780 242.864,4.000 243.000 C 4.220 243.136,4.400 244.011,4.400 244.944 C 4.400 245.877,4.571 246.811,4.781 247.021 C 4.990 247.230,5.206 248.065,5.261 248.875 C 5.315 249.685,5.504 250.259,5.680 250.151 C 5.856 250.042,6.000 250.583,6.000 251.353 C 6.000 252.123,6.180 252.864,6.400 253.000 C 6.620 253.136,6.800 253.867,6.800 254.624 C 6.800 255.381,6.980 256.000,7.200 256.000 C 7.420 256.000,7.600 256.529,7.600 257.176 C 7.600 257.823,7.780 258.464,8.000 258.600 C 8.220 258.736,8.400 259.276,8.400 259.800 C 8.400 260.324,8.580 260.864,8.800 261.000 C 9.020 261.136,9.200 261.777,9.200 262.424 C 9.200 263.071,9.360 263.600,9.556 263.600 C 9.752 263.600,10.002 264.185,10.112 264.900 C 10.405 266.817,10.662 267.653,11.406 269.117 C 11.774 269.842,12.122 270.652,12.178 270.917 C 12.442 272.174,15.223 278.945,16.440 281.295 C 16.638 281.677,16.800 282.262,16.800 282.595 C 16.800 282.928,16.980 283.200,17.200 283.200 C 17.420 283.200,17.600 283.560,17.600 284.000 C 17.600 284.440,17.780 284.800,18.000 284.800 C 18.220 284.800,18.400 285.129,18.400 285.532 C 18.400 286.507,20.212 290.055,20.541 289.725 C 20.772 289.495,20.971 290.518,20.847 291.300 C 20.821 291.465,20.980 291.600,21.200 291.600 C 21.420 291.600,21.600 291.960,21.600 292.400 C 21.600 292.840,21.759 293.200,21.953 293.200 C 22.148 293.200,22.407 293.515,22.529 293.900 C 22.746 294.585,24.004 296.804,24.400 297.200 C 24.886 297.686,25.600 299.244,25.600 299.818 C 25.600 300.164,25.780 300.336,26.000 300.200 C 26.220 300.064,26.400 300.233,26.400 300.576 C 26.400 300.919,26.560 301.200,26.755 301.200 C 26.951 301.200,27.226 301.813,27.366 302.561 C 27.507 303.310,27.887 304.024,28.211 304.149 C 28.535 304.273,28.800 304.618,28.800 304.915 C 28.800 305.212,29.515 306.414,30.388 307.585 C 31.262 308.756,31.902 309.835,31.810 309.984 C 31.718 310.133,31.993 310.507,32.421 310.815 C 32.850 311.124,33.200 311.562,33.200 311.788 C 33.201 312.015,33.651 312.723,34.200 313.362 C 34.750 314.001,35.200 314.664,35.200 314.834 C 35.200 315.004,35.431 315.381,35.713 315.671 C 35.995 315.962,36.666 316.830,37.202 317.600 C 38.533 319.509,38.629 319.632,39.840 321.000 C 40.424 321.660,41.353 322.875,41.904 323.700 C 42.455 324.525,43.050 325.200,43.226 325.200 C 43.402 325.200,43.663 325.567,43.805 326.016 C 43.948 326.465,44.845 327.680,45.799 328.716 C 48.533 331.686,49.200 332.498,49.200 332.861 C 49.200 333.048,49.470 333.200,49.800 333.200 C 50.130 333.200,50.400 333.399,50.400 333.642 C 50.400 333.885,50.850 334.619,51.400 335.273 C 51.950 335.927,52.400 336.357,52.400 336.230 C 52.400 336.102,53.074 336.763,53.897 337.699 C 54.721 338.634,55.922 339.850,56.568 340.400 C 58.618 342.147,60.400 344.014,60.400 344.413 C 60.400 344.626,60.681 344.800,61.024 344.800 C 61.367 344.800,61.536 344.980,61.400 345.200 C 61.264 345.420,61.463 345.600,61.843 345.600 C 62.223 345.600,62.436 345.698,62.316 345.817 C 62.020 346.114,64.670 348.800,65.260 348.800 C 65.520 348.800,65.623 348.910,65.489 349.044 C 65.208 349.325,67.314 351.200,67.910 351.200 C 68.126 351.200,68.955 351.943,69.752 352.852 C 70.548 353.761,71.200 354.364,71.200 354.194 C 71.200 354.023,71.633 354.314,72.162 354.842 C 73.655 356.329,74.294 356.773,74.557 356.509 C 74.691 356.376,74.800 356.577,74.800 356.957 C 74.800 357.337,74.948 357.556,75.129 357.444 C 75.309 357.332,75.758 357.592,76.125 358.020 C 76.492 358.449,77.094 358.800,77.463 358.800 C 77.832 358.800,78.017 358.917,77.874 359.060 C 77.559 359.375,79.607 361.199,80.277 361.200 C 80.540 361.200,80.990 361.515,81.277 361.900 C 81.565 362.285,82.295 362.855,82.900 363.168 C 83.505 363.480,84.000 363.885,84.000 364.068 C 84.000 364.250,84.270 364.400,84.600 364.400 C 84.930 364.400,85.200 364.580,85.200 364.800 C 85.200 365.020,85.430 365.200,85.712 365.200 C 85.993 365.200,86.483 365.560,86.800 366.000 C 87.117 366.440,87.697 366.800,88.088 366.800 C 88.480 366.800,88.800 366.980,88.800 367.200 C 88.800 367.420,89.081 367.600,89.424 367.600 C 89.767 367.600,89.936 367.780,89.800 368.000 C 89.664 368.220,89.896 368.400,90.314 368.400 C 90.733 368.400,91.402 368.760,91.800 369.200 C 92.198 369.640,92.721 370.007,92.962 370.016 C 93.203 370.025,94.023 370.565,94.785 371.216 C 95.547 371.867,96.458 372.400,96.809 372.400 C 97.161 372.400,97.824 372.749,98.282 373.176 C 98.740 373.603,99.224 373.843,99.357 373.709 C 99.491 373.576,99.600 373.663,99.600 373.902 C 99.600 374.142,100.275 374.558,101.100 374.827 C 101.925 375.096,102.690 375.425,102.800 375.558 C 103.119 375.944,105.334 377.228,106.100 377.471 C 106.485 377.593,106.800 377.852,106.800 378.047 C 106.800 378.241,107.160 378.400,107.600 378.400 C 108.040 378.400,108.400 378.580,108.400 378.800 C 108.400 379.020,108.634 379.200,108.920 379.200 C 109.609 379.200,111.593 380.131,111.597 380.456 C 111.599 380.597,112.410 380.951,113.400 381.243 C 114.390 381.535,115.200 381.915,115.200 382.087 C 115.200 382.259,115.560 382.400,116.000 382.400 C 116.440 382.400,116.800 382.580,116.800 382.800 C 116.800 383.020,117.160 383.200,117.600 383.200 C 118.040 383.200,118.400 383.380,118.400 383.600 C 118.400 383.820,118.760 384.000,119.200 384.000 C 119.640 384.000,120.000 384.191,120.000 384.424 C 120.000 384.657,120.153 384.752,120.341 384.636 C 120.529 384.520,121.024 384.684,121.441 385.000 C 121.858 385.316,122.605 385.580,123.100 385.587 C 123.595 385.594,124.000 385.780,124.000 386.000 C 124.000 386.220,124.248 386.400,124.551 386.400 C 124.854 386.400,125.799 386.702,126.651 387.070 C 127.503 387.439,128.560 387.804,129.000 387.882 C 129.440 387.960,129.860 388.198,129.933 388.412 C 130.007 388.625,130.491 388.800,131.010 388.800 C 131.528 388.800,132.050 388.957,132.168 389.148 C 132.344 389.433,134.193 389.976,135.006 389.982 C 135.117 389.983,135.745 390.261,136.400 390.600 C 137.055 390.939,137.684 391.210,137.797 391.203 C 138.611 391.153,141.259 391.771,141.432 392.053 C 141.551 392.244,142.166 392.400,142.800 392.400 C 143.434 392.400,144.064 392.580,144.200 392.800 C 144.336 393.020,144.966 393.200,145.600 393.200 C 146.234 393.200,146.864 393.380,147.000 393.600 C 147.136 393.820,147.777 394.000,148.424 394.000 C 149.071 394.000,149.600 394.180,149.600 394.400 C 149.600 394.620,150.309 394.800,151.176 394.800 C 152.043 394.800,152.864 394.980,153.000 395.200 C 153.136 395.420,154.047 395.600,155.024 395.600 C 156.001 395.600,156.800 395.780,156.800 396.000 C 156.800 396.220,157.430 396.400,158.200 396.400 C 158.970 396.400,159.600 396.238,159.600 396.041 C 159.600 395.843,139.350 375.434,114.599 350.689 L 69.598 305.696 69.699 221.148 L 69.800 136.600 102.552 136.498 L 135.305 136.395 139.152 132.944 C 141.269 131.045,144.329 128.301,145.953 126.846 C 147.576 125.391,149.294 123.840,149.770 123.400 C 152.166 121.185,155.313 118.350,157.836 116.133 C 159.381 114.776,161.196 113.156,161.871 112.533 C 162.545 111.910,163.705 110.876,164.448 110.236 C 165.192 109.595,166.793 108.155,168.006 107.036 C 169.219 105.916,171.626 103.747,173.355 102.215 C 175.083 100.683,176.988 98.973,177.587 98.415 C 178.186 97.857,179.559 96.614,180.638 95.653 C 185.221 91.571,188.167 88.930,189.289 87.899 L 190.487 86.797 181.244 77.583 L 172.000 68.370 172.000 60.065 C 172.000 54.139,172.137 51.623,172.480 51.280 C 172.832 50.928,176.136 50.800,184.853 50.800 L 196.747 50.800 196.873 49.700 C 196.997 48.629,197.074 48.597,199.800 48.489 L 202.600 48.379 246.599 92.389 L 290.599 136.400 310.209 136.400 L 329.819 136.400 364.948 171.500 L 400.077 206.600 399.890 191.072 C 399.761 180.297,399.565 175.405,399.252 175.092 C 399.003 174.843,398.800 173.452,398.800 172.000 C 398.800 170.548,398.630 169.189,398.423 168.980 C 398.215 168.771,398.004 167.664,397.952 166.520 C 397.901 165.376,397.711 164.532,397.529 164.644 C 397.348 164.756,397.200 163.757,397.200 162.424 C 397.200 161.075,397.023 160.000,396.800 160.000 C 396.580 160.000,396.400 159.280,396.400 158.400 C 396.400 157.520,396.220 156.800,396.000 156.800 C 395.780 156.800,395.600 156.001,395.600 155.024 C 395.600 154.047,395.420 153.136,395.200 153.000 C 394.980 152.864,394.800 152.043,394.800 151.176 C 394.800 150.309,394.620 149.600,394.400 149.600 C 394.180 149.600,394.000 149.071,394.000 148.424 C 394.000 147.777,393.820 147.136,393.600 147.000 C 393.380 146.864,393.200 146.234,393.200 145.600 C 393.200 144.966,393.020 144.336,392.800 144.200 C 392.580 144.064,392.400 143.434,392.400 142.800 C 392.400 142.166,392.244 141.551,392.053 141.432 C 391.780 141.264,391.060 138.156,391.187 137.696 C 391.203 137.639,390.939 137.055,390.600 136.400 C 390.261 135.745,389.983 135.117,389.982 135.006 C 389.976 134.193,389.433 132.344,389.148 132.168 C 388.957 132.050,388.800 131.528,388.800 131.010 C 388.800 130.491,388.625 130.007,388.412 129.933 C 388.198 129.860,387.960 129.440,387.882 129.000 C 387.804 128.560,387.439 127.503,387.070 126.651 C 386.702 125.799,386.400 124.854,386.400 124.551 C 386.400 124.248,386.220 124.000,386.000 124.000 C 385.780 124.000,385.594 123.595,385.587 123.100 C 385.580 122.605,385.316 121.858,385.000 121.441 C 384.684 121.024,384.520 120.529,384.636 120.341 C 384.752 120.153,384.657 120.000,384.424 120.000 C 384.191 120.000,384.000 119.640,384.000 119.200 C 384.000 118.760,383.820 118.400,383.600 118.400 C 383.380 118.400,383.200 118.040,383.200 117.600 C 383.200 117.160,383.020 116.800,382.800 116.800 C 382.580 116.800,382.400 116.440,382.400 116.000 C 382.400 115.560,382.259 115.200,382.087 115.200 C 381.915 115.200,381.535 114.390,381.243 113.400 C 380.951 112.410,380.597 111.599,380.456 111.597 C 380.131 111.593,379.200 109.609,379.200 108.920 C 379.200 108.634,379.020 108.400,378.800 108.400 C 378.580 108.400,378.400 108.040,378.400 107.600 C 378.400 107.160,378.241 106.800,378.047 106.800 C 377.852 106.800,377.593 106.485,377.471 106.100 C 377.228 105.334,375.944 103.119,375.558 102.800 C 375.425 102.690,375.096 101.925,374.827 101.100 C 374.558 100.275,374.142 99.600,373.902 99.600 C 373.663 99.600,373.576 99.491,373.709 99.357 C 373.843 99.224,373.603 98.740,373.176 98.282 C 372.749 97.824,372.400 97.161,372.400 96.809 C 372.400 96.458,371.867 95.547,371.216 94.785 C 370.565 94.023,370.025 93.203,370.016 92.962 C 370.007 92.721,369.640 92.198,369.200 91.800 C 368.760 91.402,368.400 90.733,368.400 90.314 C 368.400 89.896,368.220 89.664,368.000 89.800 C 367.780 89.936,367.600 89.767,367.600 89.424 C 367.600 89.081,367.420 88.800,367.200 88.800 C 366.980 88.800,366.800 88.480,366.800 88.088 C 366.800 87.697,366.440 87.117,366.000 86.800 C 365.560 86.483,365.200 85.993,365.200 85.712 C 365.200 85.430,365.020 85.200,364.800 85.200 C 364.580 85.200,364.400 84.930,364.400 84.600 C 364.400 84.270,364.250 84.000,364.068 84.000 C 363.885 84.000,363.480 83.505,363.168 82.900 C 362.855 82.295,362.285 81.565,361.900 81.277 C 361.515 80.990,361.200 80.540,361.200 80.277 C 361.199 79.607,359.375 77.559,359.060 77.874 C 358.917 78.017,358.800 77.832,358.800 77.463 C 358.800 77.094,358.449 76.492,358.020 76.125 C 357.592 75.758,357.332 75.309,357.444 75.129 C 357.556 74.948,357.337 74.800,356.957 74.800 C 356.577 74.800,356.376 74.691,356.509 74.557 C 356.773 74.294,356.329 73.655,354.842 72.162 C 354.314 71.633,354.023 71.200,354.194 71.200 C 354.364 71.200,353.761 70.548,352.852 69.752 C 351.943 68.955,351.200 68.126,351.200 67.910 C 351.200 67.314,349.325 65.208,349.044 65.489 C 348.910 65.623,348.800 65.520,348.800 65.260 C 348.800 64.670,346.114 62.020,345.817 62.316 C 345.698 62.436,345.600 62.223,345.600 61.843 C 345.600 61.463,345.420 61.264,345.200 61.400 C 344.980 61.536,344.800 61.367,344.800 61.024 C 344.800 60.681,344.626 60.400,344.413 60.400 C 344.014 60.400,342.147 58.618,340.400 56.568 C 339.850 55.922,338.634 54.721,337.699 53.897 C 336.763 53.074,336.102 52.400,336.230 52.400 C 336.357 52.400,335.927 51.950,335.273 51.400 C 334.619 50.850,333.885 50.400,333.642 50.400 C 333.399 50.400,333.200 50.130,333.200 49.800 C 333.200 49.470,333.048 49.200,332.861 49.200 C 332.498 49.200,331.686 48.533,328.716 45.799 C 327.680 44.845,326.465 43.948,326.016 43.805 C 325.567 43.663,325.200 43.402,325.200 43.226 C 325.200 43.050,324.525 42.455,323.700 41.904 C 322.875 41.353,321.660 40.424,321.000 39.840 C 319.632 38.629,319.509 38.533,317.600 37.202 C 316.830 36.666,315.962 35.995,315.671 35.713 C 315.381 35.431,315.004 35.200,314.834 35.200 C 314.664 35.200,314.001 34.750,313.362 34.200 C 312.723 33.651,312.015 33.201,311.788 33.200 C 311.562 33.200,311.124 32.850,310.815 32.421 C 310.507 31.993,310.133 31.718,309.984 31.810 C 309.835 31.902,308.756 31.262,307.585 30.388 C 306.414 29.515,305.212 28.800,304.915 28.800 C 304.618 28.800,304.273 28.535,304.149 28.211 C 304.024 27.887,303.310 27.507,302.561 27.366 C 301.813 27.226,301.200 26.951,301.200 26.755 C 301.200 26.560,300.919 26.400,300.576 26.400 C 300.233 26.400,300.064 26.220,300.200 26.000 C 300.336 25.780,300.164 25.600,299.818 25.600 C 299.244 25.600,297.686 24.886,297.200 24.400 C 296.804 24.004,294.585 22.746,293.900 22.529 C 293.515 22.407,293.200 22.148,293.200 21.953 C 293.200 21.759,292.840 21.600,292.400 21.600 C 291.960 21.600,291.600 21.420,291.600 21.200 C 291.600 20.980,291.465 20.821,291.300 20.847 C 290.518 20.971,289.495 20.772,289.725 20.541 C 290.055 20.212,286.507 18.400,285.532 18.400 C 285.129 18.400,284.800 18.220,284.800 18.000 C 284.800 17.780,284.440 17.600,284.000 17.600 C 283.560 17.600,283.200 17.420,283.200 17.200 C 283.200 16.980,282.928 16.800,282.595 16.800 C 282.262 16.800,281.677 16.638,281.295 16.440 C 278.945 15.223,272.174 12.442,270.917 12.178 C 270.652 12.122,269.842 11.774,269.117 11.406 C 267.653 10.662,266.817 10.405,264.900 10.112 C 264.185 10.002,263.600 9.752,263.600 9.556 C 263.600 9.360,263.071 9.200,262.424 9.200 C 261.777 9.200,261.136 9.020,261.000 8.800 C 260.864 8.580,260.324 8.400,259.800 8.400 C 259.276 8.400,258.736 8.220,258.600 8.000 C 258.464 7.780,257.823 7.600,257.176 7.600 C 256.529 7.600,256.000 7.420,256.000 7.200 C 256.000 6.980,255.381 6.800,254.624 6.800 C 253.867 6.800,253.136 6.620,253.000 6.400 C 252.864 6.180,252.123 6.000,251.353 6.000 C 250.583 6.000,250.042 5.856,250.151 5.680 C 250.259 5.504,249.685 5.315,248.875 5.261 C 248.065 5.206,247.230 4.990,247.021 4.781 C 246.811 4.571,245.877 4.400,244.944 4.400 C 244.011 4.400,243.136 4.220,243.000 4.000 C 242.864 3.780,242.133 3.600,241.376 3.600 C 240.619 3.600,240.000 3.420,240.000 3.200 C 240.000 2.977,238.925 2.800,237.576 2.800 C 236.220 2.800,235.252 2.639,235.378 2.436 C 235.589 2.094,234.433 1.925,228.000 1.356 C 226.570 1.230,225.155 0.925,224.857 0.678 C 224.293 0.213,182.821 -0.318,182.389 0.134 M398.006 230.300 C 398.011 231.157,398.098 231.268,398.400 230.800 C 398.906 230.017,398.906 229.200,398.400 229.200 C 398.180 229.200,398.003 229.695,398.006 230.300 M396.400 239.200 C 396.400 239.640,396.580 240.000,396.800 240.000 C 397.020 240.000,397.200 239.640,397.200 239.200 C 397.200 238.760,397.020 238.400,396.800 238.400 C 396.580 238.400,396.400 238.760,396.400 239.200 M174.959 399.267 C 174.845 399.450,175.123 399.600,175.576 399.600 C 176.029 399.600,176.400 399.450,176.400 399.267 C 176.400 399.083,176.122 398.933,175.782 398.933 C 175.443 398.933,175.072 399.083,174.959 399.267 M223.600 399.285 C 223.600 399.458,223.960 399.600,224.400 399.600 C 224.840 399.600,225.200 399.431,225.200 399.225 C 225.200 399.019,224.840 398.877,224.400 398.910 C 223.960 398.943,223.600 399.112,223.600 399.285 " stroke="none" fill="#1c54db" fill-rule="evenodd"></path><path id="path2" d="M197.683 102.018 C 180.663 104.418,176.172 127.060,191.022 135.606 C 203.006 142.502,218.010 133.951,218.095 120.176 C 218.149 111.408,211.444 103.098,203.593 102.202 C 202.387 102.064,201.040 101.900,200.600 101.836 C 200.160 101.772,198.848 101.854,197.683 102.018 M86.985 153.696 C 86.878 153.974,86.838 161.581,86.895 170.600 L 87.000 187.000 103.600 187.000 L 120.200 187.000 120.200 170.200 L 120.200 153.400 103.689 153.296 C 90.688 153.213,87.137 153.298,86.985 153.696 M156.267 153.467 C 155.617 154.117,155.973 186.704,156.633 186.957 C 157.923 187.452,188.612 187.228,189.120 186.720 C 189.944 185.896,189.796 153.761,188.967 153.443 C 188.101 153.110,156.600 153.133,156.267 153.467 M281.785 153.696 C 281.678 153.974,281.638 161.581,281.695 170.600 L 281.800 187.000 298.400 187.000 L 315.000 187.000 315.000 170.200 L 315.000 153.400 298.489 153.296 C 285.488 153.213,281.937 153.298,281.785 153.696 M210.596 154.500 C 210.476 154.995,210.427 162.420,210.489 171.000 L 210.600 186.600 227.200 186.600 L 243.800 186.600 243.904 170.100 L 244.009 153.600 227.412 153.600 L 210.815 153.600 210.596 154.500 M86.896 224.700 L 87.000 241.400 103.600 241.400 L 120.200 241.400 120.304 224.700 L 120.409 208.000 103.600 208.000 L 86.791 208.000 86.896 224.700 M156.000 224.600 L 156.000 241.200 172.800 241.200 L 189.600 241.200 189.600 224.600 L 189.600 208.000 172.800 208.000 L 156.000 208.000 156.000 224.600 M210.667 208.267 C 210.520 208.413,210.400 215.883,210.400 224.867 L 210.400 241.200 227.200 241.200 L 244.000 241.200 244.000 224.600 L 244.000 208.000 227.467 208.000 C 218.373 208.000,210.813 208.120,210.667 208.267 M281.696 224.700 L 281.800 241.400 298.400 241.400 L 315.000 241.400 315.104 224.700 L 315.209 208.000 298.400 208.000 L 281.591 208.000 281.696 224.700 " stroke="none" fill="#2abff5" fill-rule="evenodd"></path><path id="path3" d="M197.067 48.667 C 196.920 48.813,196.803 49.128,196.806 49.367 C 196.809 49.605,196.963 49.562,197.148 49.270 C 197.405 48.866,198.162 48.807,200.342 49.022 L 203.200 49.303 203.200 65.392 L 203.200 81.481 209.868 87.440 C 213.535 90.718,216.911 93.760,217.370 94.200 C 217.828 94.640,219.026 95.720,220.031 96.600 C 223.484 99.623,229.402 104.924,231.600 106.962 C 232.810 108.083,234.610 109.707,235.600 110.569 C 237.432 112.165,242.785 116.972,246.786 120.616 C 248.004 121.725,249.720 123.240,250.600 123.982 C 251.480 124.724,253.730 126.724,255.600 128.426 C 257.470 130.128,260.319 132.708,261.932 134.160 L 264.863 136.800 297.632 136.800 L 330.402 136.800 330.301 221.500 L 330.200 306.200 200.200 306.200 L 70.200 306.200 70.099 221.500 L 69.998 136.800 102.699 136.798 L 135.400 136.795 138.399 134.098 C 141.820 131.020,145.144 127.790,143.619 129.026 C 143.059 129.480,140.964 131.324,138.964 133.123 L 135.328 136.395 102.564 136.498 L 69.800 136.600 69.699 221.149 L 69.598 305.698 114.099 350.201 C 158.854 394.958,160.470 396.596,160.172 396.894 C 160.083 396.984,160.948 397.100,162.096 397.153 C 163.243 397.205,164.293 397.427,164.428 397.645 C 164.563 397.863,164.837 398.011,165.037 397.974 C 166.302 397.735,169.611 398.058,169.400 398.400 C 169.245 398.651,170.207 398.819,171.976 398.850 C 176.078 398.923,176.173 398.934,176.485 399.387 C 176.874 399.949,223.113 399.962,223.515 399.400 C 223.876 398.893,224.062 398.864,227.531 398.763 C 229.109 398.716,230.400 398.526,230.400 398.339 C 230.400 398.153,231.570 398.000,233.000 398.000 C 234.467 398.000,235.600 397.826,235.600 397.600 C 235.600 397.380,236.489 397.200,237.576 397.200 C 238.663 397.200,239.664 397.020,239.800 396.800 C 239.936 396.580,240.757 396.400,241.624 396.400 C 242.491 396.400,243.200 396.220,243.200 396.000 C 243.200 395.780,243.999 395.600,244.976 395.600 C 245.953 395.600,246.864 395.420,247.000 395.200 C 247.136 394.980,247.856 394.800,248.600 394.800 C 249.344 394.800,250.064 394.620,250.200 394.400 C 250.336 394.180,251.022 393.997,251.724 393.994 C 252.695 393.989,252.857 393.895,252.400 393.600 C 251.965 393.319,252.317 393.211,253.676 393.206 C 254.708 393.203,255.664 393.020,255.800 392.800 C 255.936 392.580,256.562 392.400,257.190 392.400 C 257.819 392.400,258.393 392.236,258.467 392.036 C 258.540 391.836,259.590 391.549,260.800 391.398 C 262.010 391.248,263.253 390.917,263.561 390.662 C 263.870 390.408,264.439 390.254,264.826 390.319 C 265.213 390.385,265.646 390.250,265.788 390.019 C 265.931 389.789,266.407 389.600,266.847 389.600 C 267.350 389.600,267.541 389.428,267.362 389.138 C 267.184 388.850,267.252 388.785,267.543 388.965 C 267.800 389.124,268.576 388.971,269.267 388.627 C 269.958 388.282,270.729 388.000,270.982 388.000 C 271.669 388.000,273.593 387.044,273.597 386.700 C 273.599 386.535,274.140 386.400,274.800 386.400 C 275.460 386.400,276.000 386.220,276.000 386.000 C 276.000 385.780,276.360 385.600,276.800 385.600 C 277.240 385.600,277.600 385.420,277.600 385.200 C 277.600 384.980,278.140 384.800,278.800 384.800 C 279.460 384.800,280.000 384.620,280.000 384.400 C 280.000 384.180,280.360 384.000,280.800 384.000 C 281.240 384.000,281.600 383.820,281.600 383.600 C 281.600 383.380,281.960 383.200,282.400 383.200 C 282.840 383.200,283.200 383.020,283.200 382.800 C 283.200 382.580,283.549 382.400,283.976 382.400 C 284.403 382.400,284.864 382.220,285.000 382.000 C 285.136 381.780,285.687 381.600,286.224 381.600 C 286.761 381.600,287.200 381.420,287.200 381.200 C 287.200 380.980,287.560 380.800,288.000 380.800 C 288.440 380.800,288.800 380.664,288.800 380.498 C 288.800 380.331,289.385 379.937,290.100 379.622 C 290.815 379.307,291.640 378.811,291.932 378.521 C 292.225 378.230,292.630 378.095,292.832 378.220 C 293.035 378.345,293.200 378.257,293.200 378.024 C 293.200 377.791,293.560 377.600,294.000 377.600 C 294.458 377.600,294.800 377.333,294.800 376.976 C 294.800 376.633,294.980 376.464,295.200 376.600 C 295.420 376.736,295.600 376.657,295.600 376.424 C 295.600 376.191,295.881 376.000,296.224 376.000 C 296.567 376.000,296.755 375.850,296.641 375.667 C 296.528 375.483,296.652 375.318,296.918 375.299 C 298.692 375.172,301.200 374.137,301.200 373.532 C 301.200 373.350,301.560 373.200,302.000 373.200 C 302.440 373.200,302.800 373.064,302.800 372.898 C 302.800 372.731,303.341 372.356,304.002 372.063 C 304.664 371.770,305.103 371.366,304.979 371.165 C 304.854 370.964,305.078 370.794,305.476 370.787 C 306.205 370.774,308.078 369.602,307.376 369.598 C 307.169 369.596,307.516 369.326,308.146 368.998 C 308.776 368.669,309.501 368.400,309.757 368.400 C 310.014 368.400,310.483 368.040,310.800 367.600 C 311.117 367.160,311.742 366.797,312.188 366.794 C 312.859 366.789,312.896 366.720,312.400 366.400 C 311.915 366.086,311.972 366.011,312.700 366.006 C 313.195 366.003,313.600 365.841,313.600 365.647 C 313.600 365.452,313.915 365.183,314.300 365.048 C 315.135 364.755,317.448 363.155,318.686 362.016 C 319.173 361.567,319.723 361.200,319.908 361.200 C 320.092 361.200,320.931 360.570,321.772 359.800 C 322.613 359.030,323.436 358.400,323.602 358.400 C 323.768 358.400,324.645 357.680,325.552 356.800 C 326.459 355.920,327.391 355.200,327.623 355.200 C 327.855 355.200,328.908 354.300,329.963 353.200 C 331.017 352.100,332.100 351.200,332.369 351.200 C 333.006 351.200,334.034 350.167,333.714 349.848 C 333.578 349.711,333.767 349.600,334.133 349.600 C 334.556 349.600,334.802 349.271,334.806 348.700 C 334.811 348.030,334.902 347.941,335.162 348.353 C 335.437 348.787,335.571 348.723,335.783 348.053 C 335.932 347.584,336.322 347.200,336.651 347.200 C 336.979 347.200,337.136 347.020,337.000 346.800 C 336.864 346.580,336.956 346.400,337.205 346.400 C 337.815 346.400,338.824 345.358,338.514 345.048 C 338.378 344.911,338.494 344.800,338.773 344.800 C 339.201 344.800,340.060 343.988,341.948 341.800 C 342.137 341.580,342.677 341.135,343.146 340.812 C 343.616 340.488,344.000 339.983,344.000 339.688 C 344.000 339.394,344.180 339.264,344.400 339.400 C 344.620 339.536,344.800 339.356,344.800 339.000 C 344.800 338.644,344.935 338.427,345.100 338.518 C 345.265 338.609,346.169 337.900,347.109 336.942 C 348.049 335.984,348.589 335.197,348.309 335.194 C 347.947 335.190,347.968 335.081,348.381 334.820 C 348.700 334.618,349.090 334.532,349.246 334.629 C 349.403 334.725,349.765 334.276,350.050 333.631 C 350.336 332.986,350.712 332.545,350.885 332.652 C 351.058 332.760,351.200 332.648,351.200 332.405 C 351.200 332.161,352.103 331.059,353.207 329.955 C 354.311 328.851,355.094 327.751,354.946 327.512 C 354.784 327.251,354.862 327.191,355.141 327.364 C 355.410 327.530,355.722 327.345,355.882 326.925 C 356.034 326.526,356.591 325.750,357.118 325.200 C 357.646 324.650,358.323 323.660,358.623 323.000 C 358.923 322.340,359.176 321.948,359.184 322.129 C 359.214 322.746,360.400 321.259,360.400 320.605 C 360.400 320.246,360.550 320.045,360.732 320.158 C 360.915 320.271,361.309 319.741,361.608 318.980 C 361.978 318.037,362.252 317.756,362.469 318.098 C 362.694 318.452,362.790 318.382,362.794 317.860 C 362.797 317.454,363.340 316.617,364.000 316.000 C 364.660 315.383,365.200 314.591,365.200 314.240 C 365.200 313.888,365.380 313.600,365.600 313.600 C 365.820 313.600,366.000 313.280,366.000 312.888 C 366.000 312.497,366.360 311.917,366.800 311.600 C 367.240 311.283,367.603 310.658,367.606 310.212 C 367.611 309.541,367.680 309.504,368.000 310.000 C 368.314 310.486,368.389 310.429,368.394 309.703 C 368.397 309.210,368.760 308.582,369.200 308.307 C 369.640 308.032,370.000 307.581,370.000 307.304 C 370.000 307.027,370.180 306.800,370.400 306.800 C 370.620 306.800,370.800 306.339,370.800 305.776 C 370.800 305.196,370.973 304.860,371.200 305.000 C 371.551 305.217,371.664 304.964,371.574 304.170 C 371.559 304.043,371.919 303.617,372.374 303.223 C 372.828 302.829,373.200 302.212,373.200 301.853 C 373.200 301.494,373.353 301.200,373.539 301.200 C 373.972 301.200,375.215 298.465,375.301 297.323 C 375.337 296.846,375.509 296.544,375.683 296.651 C 375.857 296.759,376.000 296.567,376.000 296.224 C 376.000 295.881,376.180 295.600,376.400 295.600 C 376.620 295.600,376.800 295.319,376.800 294.976 C 376.800 294.633,376.984 294.467,377.210 294.606 C 377.435 294.745,377.594 294.711,377.563 294.530 C 377.405 293.622,377.645 292.781,378.000 293.000 C 378.220 293.136,378.400 292.892,378.400 292.457 C 378.400 292.022,378.588 291.604,378.818 291.527 C 379.048 291.451,379.265 290.998,379.301 290.522 C 379.337 290.045,379.509 289.744,379.683 289.851 C 379.857 289.959,380.000 289.782,380.000 289.457 C 380.000 289.132,380.225 288.762,380.500 288.633 C 380.895 288.449,380.892 288.350,380.484 288.161 C 380.090 287.979,380.138 287.764,380.684 287.257 C 381.676 286.335,382.400 284.963,382.400 284.005 C 382.400 283.562,382.580 283.200,382.800 283.200 C 383.020 283.200,383.200 282.840,383.200 282.400 C 383.200 281.960,383.380 281.600,383.600 281.600 C 383.820 281.600,384.000 281.240,384.000 280.800 C 384.000 280.360,384.180 280.000,384.400 280.000 C 384.620 280.000,384.800 279.561,384.800 279.024 C 384.800 278.487,384.980 277.936,385.200 277.800 C 385.420 277.664,385.600 277.218,385.600 276.810 C 385.600 276.401,385.825 275.976,386.100 275.865 C 386.490 275.708,386.486 275.656,386.084 275.632 C 385.745 275.611,385.847 275.301,386.384 274.725 C 386.833 274.243,387.200 273.534,387.200 273.148 C 387.200 272.763,387.380 272.336,387.600 272.200 C 387.820 272.064,388.000 271.549,388.000 271.056 C 388.000 270.563,388.165 269.989,388.367 269.780 C 388.568 269.571,388.793 269.040,388.867 268.600 C 388.940 268.160,389.116 267.710,389.259 267.600 C 389.401 267.490,389.581 266.950,389.659 266.400 C 389.736 265.850,389.899 265.310,390.020 265.200 C 390.487 264.775,391.600 260.640,391.600 259.330 C 391.600 258.514,391.763 258.053,392.000 258.200 C 392.233 258.344,392.400 257.937,392.400 257.224 C 392.400 256.551,392.580 256.000,392.800 256.000 C 393.020 256.000,393.200 255.280,393.200 254.400 C 393.200 253.520,393.380 252.800,393.600 252.800 C 393.820 252.800,394.000 252.260,394.000 251.600 C 394.000 250.940,394.180 250.400,394.400 250.400 C 394.620 250.400,394.800 249.680,394.800 248.800 C 394.800 247.920,394.980 247.200,395.200 247.200 C 395.423 247.200,395.600 246.125,395.600 244.776 C 395.600 243.263,395.750 242.446,396.000 242.600 C 396.248 242.753,396.400 242.004,396.400 240.624 C 396.400 239.401,396.580 238.400,396.800 238.400 C 397.020 238.400,397.200 237.770,397.200 237.000 C 397.200 236.230,397.402 235.600,397.649 235.600 C 397.942 235.600,397.907 235.364,397.549 234.923 C 397.176 234.463,397.160 234.343,397.500 234.547 C 397.881 234.776,398.000 234.176,398.000 232.024 C 398.000 230.408,398.171 229.200,398.400 229.200 C 398.620 229.200,398.800 228.336,398.800 227.280 C 398.800 226.224,398.974 225.186,399.186 224.974 C 399.404 224.756,399.621 220.640,399.686 215.507 L 399.800 206.426 364.810 171.413 L 329.820 136.400 310.209 136.400 L 290.599 136.400 246.600 92.400 L 202.601 48.400 199.967 48.400 C 198.519 48.400,197.213 48.520,197.067 48.667 M172.480 51.280 C 172.137 51.623,172.000 54.139,172.000 60.065 L 172.000 68.370 181.253 77.592 L 190.505 86.815 189.653 87.554 C 189.184 87.961,188.800 88.424,188.800 88.583 C 188.800 88.741,190.600 87.210,192.800 85.180 L 196.800 81.489 196.800 75.145 L 196.800 68.800 184.800 68.800 L 172.800 68.800 172.800 60.200 L 172.800 51.600 184.800 51.600 C 192.533 51.600,196.800 51.458,196.800 51.200 C 196.800 50.583,173.099 50.661,172.480 51.280 M186.644 90.220 C 185.788 90.991,185.170 91.703,185.270 91.803 C 185.370 91.903,186.152 91.269,187.007 90.393 C 188.924 88.429,188.733 88.338,186.644 90.220 M183.068 93.446 C 182.225 94.229,181.607 94.940,181.694 95.027 C 181.781 95.114,182.552 94.469,183.407 93.593 C 185.334 91.619,185.129 91.530,183.068 93.446 M179.053 97.053 C 177.982 98.036,177.174 98.907,177.257 98.990 C 177.339 99.072,178.271 98.324,179.326 97.326 C 180.382 96.329,181.190 95.457,181.122 95.389 C 181.054 95.321,180.123 96.070,179.053 97.053 M174.915 100.810 C 173.989 101.685,173.367 102.400,173.534 102.400 C 173.701 102.400,174.541 101.680,175.400 100.800 C 177.410 98.741,177.100 98.748,174.915 100.810 M201.105 101.883 C 201.602 101.979,202.322 101.975,202.705 101.875 C 203.087 101.775,202.680 101.696,201.800 101.701 C 200.920 101.705,200.607 101.787,201.105 101.883 M171.000 104.278 C 167.069 107.856,165.164 109.697,165.277 109.807 C 165.345 109.872,167.110 108.329,169.200 106.377 C 171.290 104.425,172.910 102.827,172.800 102.825 C 172.690 102.823,171.880 103.477,171.000 104.278 M163.044 111.420 C 162.188 112.191,161.570 112.903,161.670 113.003 C 161.770 113.103,162.552 112.469,163.407 111.593 C 165.324 109.629,165.133 109.538,163.044 111.420 M159.200 114.908 C 158.210 115.842,156.680 117.217,155.800 117.963 C 153.168 120.194,149.600 123.557,149.600 123.807 C 149.600 124.068,160.658 114.154,161.019 113.570 C 161.444 112.882,161.006 113.204,159.200 114.908 M147.440 125.440 C 146.586 126.200,145.959 126.892,146.045 126.979 C 146.132 127.065,146.891 126.505,147.733 125.733 C 148.575 124.962,149.203 124.269,149.128 124.195 C 149.053 124.120,148.294 124.680,147.440 125.440 M210.664 153.496 C 210.561 153.663,218.019 153.751,227.238 153.691 L 244.000 153.583 244.000 170.200 L 244.000 186.817 227.220 186.709 C 217.991 186.649,210.577 186.737,210.744 186.904 C 210.912 187.072,218.508 187.162,227.624 187.104 L 244.200 187.000 244.200 170.200 L 244.200 153.400 227.526 153.296 C 218.356 153.238,210.768 153.328,210.664 153.496 M244.095 224.496 L 244.000 241.191 227.300 241.300 L 210.600 241.409 227.313 241.505 C 240.392 241.579,244.067 241.491,244.217 241.100 C 244.323 240.824,244.360 233.219,244.300 224.200 L 244.191 207.800 244.095 224.496 " stroke="none" fill="#144cab" fill-rule="evenodd"></path><path id="path4" d="M197.061 49.384 C 196.918 49.759,196.800 50.408,196.800 50.827 C 196.800 51.556,196.290 51.593,184.700 51.700 L 172.600 51.812 184.700 51.906 L 196.800 52.000 196.800 60.194 L 196.800 68.388 184.700 68.500 L 172.600 68.612 184.700 68.706 L 196.800 68.800 196.800 75.168 L 196.800 81.537 190.700 87.039 C 187.345 90.065,183.070 93.920,181.200 95.607 C 177.454 98.985,150.231 123.440,148.000 125.432 C 139.129 133.351,134.867 137.304,136.200 136.378 C 136.869 135.912,138.430 134.540,145.043 128.600 C 145.288 128.380,146.191 127.570,147.050 126.800 C 153.155 121.327,156.254 118.545,156.628 118.200 C 156.867 117.980,158.482 116.540,160.216 115.000 C 163.327 112.238,164.549 111.136,172.013 104.365 C 175.414 101.280,182.313 95.086,186.600 91.268 C 191.080 87.278,197.086 81.672,197.931 80.691 C 199.784 78.540,200.145 78.567,202.480 81.024 C 203.646 82.250,205.770 84.248,207.200 85.462 C 209.361 87.298,209.242 87.141,206.500 84.535 L 203.200 81.400 203.200 65.300 L 203.200 49.200 202.300 49.197 C 201.805 49.195,200.483 49.083,199.361 48.948 C 197.667 48.744,197.279 48.818,197.061 49.384 M210.000 87.815 C 210.000 87.975,210.334 88.397,210.743 88.753 C 211.152 89.109,212.794 90.570,214.392 92.000 C 215.989 93.430,217.497 94.674,217.741 94.764 C 218.263 94.957,218.078 94.779,213.494 90.662 C 211.572 88.937,210.000 87.656,210.000 87.815 M220.117 97.084 C 224.200 100.776,225.008 101.352,221.829 98.303 C 220.053 96.599,218.473 95.204,218.317 95.203 C 218.162 95.201,218.972 96.048,220.117 97.084 M197.800 101.484 C 187.887 102.407,179.916 112.755,181.599 122.517 C 183.105 131.255,190.942 138.541,198.628 138.351 L 200.600 138.302 198.219 137.955 C 175.884 134.701,176.919 104.027,199.439 101.811 C 205.031 101.260,210.276 103.794,215.002 109.329 C 215.476 109.884,216.900 112.824,217.637 114.772 C 219.633 120.043,217.579 127.966,213.000 132.660 C 211.624 134.071,209.576 135.641,208.200 136.341 C 206.880 137.012,206.048 137.570,206.351 137.581 C 207.402 137.617,211.306 135.076,213.370 133.013 C 220.523 125.860,220.587 114.389,213.514 107.106 C 208.908 102.362,204.665 100.844,197.800 101.484 M225.635 101.819 C 225.669 102.201,232.949 108.800,233.335 108.800 C 233.448 108.800,232.429 107.771,231.070 106.513 C 229.712 105.255,227.925 103.598,227.100 102.832 C 226.275 102.065,225.616 101.609,225.635 101.819 M235.454 110.900 C 236.519 111.835,238.337 113.481,239.495 114.558 C 240.653 115.635,241.600 116.387,241.600 116.229 C 241.600 115.894,241.575 115.870,237.363 112.098 C 235.583 110.504,233.989 109.200,233.822 109.200 C 233.655 109.200,234.389 109.965,235.454 110.900 M242.000 116.510 C 242.000 116.615,243.575 118.114,245.500 119.840 C 247.425 121.566,248.640 122.558,248.200 122.044 C 247.225 120.906,242.000 116.241,242.000 116.510 M249.204 123.059 C 249.206 123.246,249.774 123.848,250.467 124.396 C 251.160 124.943,252.913 126.501,254.364 127.857 C 255.814 129.213,257.062 130.263,257.138 130.190 C 257.214 130.117,256.134 128.991,254.738 127.688 C 250.892 124.096,249.200 122.681,249.204 123.059 M260.800 133.533 C 262.670 135.311,264.345 136.773,264.523 136.783 C 264.887 136.802,260.933 133.086,258.800 131.405 C 258.030 130.798,258.930 131.755,260.800 133.533 M70.099 221.500 L 70.200 306.200 200.200 306.200 L 330.200 306.200 330.301 221.500 L 330.402 136.800 297.701 136.898 L 265.000 136.995 297.300 137.100 L 329.600 137.205 329.600 221.664 L 329.600 306.124 200.424 305.901 C 129.378 305.778,71.058 305.559,70.824 305.415 C 70.527 305.232,70.400 279.953,70.400 221.179 L 70.400 137.205 102.700 137.100 L 135.000 136.995 102.499 136.898 L 69.998 136.800 70.099 221.500 M202.800 138.000 L 201.400 138.295 203.076 138.347 C 203.998 138.376,204.864 138.220,205.000 138.000 C 205.272 137.560,204.891 137.560,202.800 138.000 M86.583 153.300 C 86.477 153.575,86.438 161.360,86.496 170.600 L 86.600 187.400 103.574 187.504 C 116.887 187.586,120.616 187.500,120.868 187.104 C 121.418 186.237,121.277 153.837,120.720 153.280 C 120.010 152.570,86.855 152.590,86.583 153.300 M155.680 153.280 C 155.123 153.837,154.982 186.237,155.532 187.104 C 155.784 187.500,159.513 187.586,172.826 187.504 L 189.800 187.400 189.904 170.426 C 189.986 157.113,189.900 153.384,189.504 153.132 C 188.637 152.582,156.237 152.723,155.680 153.280 M210.183 153.300 C 210.077 153.575,210.038 161.360,210.096 170.600 L 210.200 187.400 227.400 187.400 L 244.600 187.400 244.704 170.426 C 244.786 157.113,244.700 153.384,244.304 153.132 C 243.405 152.562,210.404 152.724,210.183 153.300 M281.200 170.200 L 281.200 187.608 298.500 187.504 L 315.800 187.400 315.800 170.200 L 315.800 153.000 298.500 152.896 L 281.200 152.792 281.200 170.200 M120.200 170.200 L 120.200 187.000 103.600 187.000 L 87.000 187.000 86.895 170.600 C 86.838 161.581,86.878 153.974,86.985 153.696 C 87.137 153.298,90.688 153.213,103.689 153.296 L 120.200 153.400 120.200 170.200 M188.967 153.443 C 189.796 153.761,189.944 185.896,189.120 186.720 C 188.612 187.228,157.923 187.452,156.633 186.957 C 155.973 186.704,155.617 154.117,156.267 153.467 C 156.600 153.133,188.101 153.110,188.967 153.443 M244.200 170.200 L 244.200 187.000 227.400 187.000 L 210.600 187.000 210.495 170.600 C 210.438 161.581,210.478 153.974,210.585 153.696 C 210.737 153.298,214.328 153.213,227.489 153.296 L 244.200 153.400 244.200 170.200 M315.000 170.200 L 315.000 187.000 298.400 187.000 L 281.800 187.000 281.695 170.600 C 281.638 161.581,281.678 153.974,281.785 153.696 C 281.937 153.298,285.488 153.213,298.489 153.296 L 315.000 153.400 315.000 170.200 M86.896 207.532 C 86.500 207.784,86.414 211.513,86.496 224.826 L 86.600 241.800 103.354 241.904 C 115.389 241.979,120.261 241.881,120.654 241.555 C 121.657 240.723,121.439 208.156,120.426 207.614 C 119.502 207.119,87.668 207.042,86.896 207.532 M210.696 207.477 C 210.035 207.649,209.998 208.720,210.096 224.730 L 210.200 241.800 227.400 241.800 L 244.600 241.800 244.705 225.000 C 244.802 209.561,244.755 208.159,244.129 207.700 C 243.463 207.212,212.504 207.005,210.696 207.477 M281.296 224.696 L 281.400 242.200 298.247 242.304 C 312.157 242.390,315.175 242.313,315.552 241.858 C 315.882 241.460,315.980 236.614,315.904 224.354 L 315.800 207.400 298.496 207.296 L 281.192 207.191 281.296 224.696 M155.467 207.867 C 154.951 208.382,155.158 240.998,155.680 241.520 C 156.188 242.028,188.076 242.253,189.367 241.757 C 189.930 241.541,190.000 239.651,190.000 224.557 L 190.000 207.600 172.867 207.600 C 163.443 207.600,155.613 207.720,155.467 207.867 M120.304 224.700 L 120.200 241.400 103.600 241.400 L 87.000 241.400 86.896 224.700 L 86.791 208.000 103.600 208.000 L 120.409 208.000 120.304 224.700 M189.600 224.600 L 189.600 241.200 172.800 241.200 L 156.000 241.200 156.000 224.600 L 156.000 208.000 172.800 208.000 L 189.600 208.000 189.600 224.600 M244.304 224.700 L 244.200 241.400 227.400 241.400 L 210.600 241.400 210.496 224.700 L 210.391 208.000 227.400 208.000 L 244.409 208.000 244.304 224.700 M315.104 224.700 L 315.000 241.400 298.400 241.400 L 281.800 241.400 281.696 224.700 L 281.591 208.000 298.400 208.000 L 315.209 208.000 315.104 224.700 " stroke="none" fill="#ad9660" fill-rule="evenodd"></path></g></svg>